<?xml version="1.0" encoding="UTF-8" standalone="no"?>
<!-- Created with Inkscape (http://www.inkscape.org/) -->

<svg
   xmlns:dc="http://purl.org/dc/elements/1.1/"
   xmlns:cc="http://creativecommons.org/ns#"
   xmlns:rdf="http://www.w3.org/1999/02/22-rdf-syntax-ns#"
   xmlns:svg="http://www.w3.org/2000/svg"
   xmlns="http://www.w3.org/2000/svg"
   xmlns:sodipodi="http://sodipodi.sourceforge.net/DTD/sodipodi-0.dtd"
   xmlns:inkscape="http://www.inkscape.org/namespaces/inkscape"
   id="svg2"
   version="1.1"
   inkscape:version="0.48.4 r9939"
   width="416.25"
   height="513.75"
   xml:space="preserve"
   sodipodi:docname="medal.png"><metadata
     id="metadata8"><rdf:RDF><cc:Work
         rdf:about=""><dc:format>image/svg+xml</dc:format><dc:type
           rdf:resource="http://purl.org/dc/dcmitype/StillImage" /><dc:title></dc:title></cc:Work></rdf:RDF></metadata><defs
     id="defs6" /><sodipodi:namedview
     pagecolor="#ffffff"
     bordercolor="#666666"
     borderopacity="1"
     objecttolerance="10"
     gridtolerance="10"
     guidetolerance="10"
     inkscape:pageopacity="0"
     inkscape:pageshadow="2"
     inkscape:window-width="1301"
     inkscape:window-height="744"
     id="namedview4"
     showgrid="false"
     inkscape:zoom="0.4593674"
     inkscape:cx="-94.465042"
     inkscape:cy="256.875"
     inkscape:window-x="65"
     inkscape:window-y="24"
     inkscape:window-maximized="1"
     inkscape:current-layer="g10" /><g
     id="g10"
     inkscape:groupmode="layer"
     inkscape:label="ink_ext_XXXXXX"
     transform="matrix(1.25,0,0,-1.25,0,513.75)"><g
       id="g3036"
       transform="matrix(0.96336946,0,0,0.86802826,6.1948402,55.719105)"><path
         d="m 154.664,138.932 c 1.332,2.012 3.645,3.098 6.102,2.825 l 110.847,-13.321 c 2,-0.242 3.778,-1.41 4.782,-3.156 l 40.343,-69.8788 c 1.074,-1.8633 1.145,-4.1442 0.184,-6.0621 C 315.957,47.4129 314.09,46.1 311.953,45.843 L 266.285,40.393 238.727,3.56914 c -1.211,-1.625 -3.114,-2.56601 -5.125,-2.56601 -0.125,0 -0.254,0.0039 -0.387,0.01093 -2.149,0.12891 -4.086,1.33203 -5.16,3.2 L 154.453,132.214 c -1.207,2.093 -1.125,4.699 0.211,6.718 z"
         style="fill:#002109;fill-opacity:1;fill-rule:nonzero;stroke:none"
         id="path14"
         inkscape:connector-curvature="0" /><path
         d="m 220.855,119.413 c -1.203,2.094 -1.125,4.699 0.215,6.719 1.332,2.011 3.645,3.097 6.098,2.824 l 50.617,-6.082 38.953,-67.4728 c 1.078,-1.8633 1.145,-4.1442 0.184,-6.0621 -0.961,-1.9262 -2.832,-3.2391 -4.969,-3.4961 l -45.66,-5.45 -45.438,79.02 z"
         style="fill:#55744b;fill-opacity:1;fill-rule:nonzero;stroke:none"
         id="path16"
         inkscape:connector-curvature="0" /><path
         d="m 178.137,138.932 c -1.328,2.012 -3.641,3.098 -6.098,2.825 L 61.1879,128.436 c -2,-0.242 -3.7738,-1.414 -4.782,-3.156 L 16.0621,55.4012 C 14.9879,53.5379 14.918,51.257 15.8789,49.3391 16.8441,47.4129 18.7109,46.1 20.848,45.843 L 66.5199,40.393 94.0738,3.56914 c 1.2153,-1.625 3.1141,-2.570312 5.125,-2.570312 0.125,0 0.2582,0.008202 0.3871,0.015232 2.1521,0.12891 4.0861,1.32891 5.1641,3.2 L 178.348,132.214 c 1.211,2.093 1.129,4.699 -0.211,6.718 z"
         style="fill:#55744b;fill-opacity:1;fill-rule:nonzero;stroke:none"
         id="path18"
         inkscape:connector-curvature="0" /><path
         d="m 111.945,119.413 c 1.207,2.094 1.125,4.699 -0.211,6.719 -1.332,2.011 -3.644,3.097 -6.101,2.824 L 55.016,122.874 16.0621,55.4012 C 14.9879,53.5379 14.918,51.257 15.8789,49.3391 16.8441,47.4129 18.7109,46.1 20.848,45.843 l 45.6598,-5.45 45.4372,79.02 z"
         style="fill:#002108;fill-opacity:1;fill-rule:nonzero;stroke:none"
         id="path20"
         inkscape:connector-curvature="0" /><path
         d="m 311.652,278.979 c -6.488,6.449 -12.625,12.547 -15.132,18.59 -2.696,6.484 -2.715,15.856 -2.731,24.918 -0.039,14.356 -0.07,29.195 -9.727,38.852 -9.656,9.66 -24.5,9.691 -38.847,9.73 -9.063,0.016 -18.434,0.043 -24.918,2.731 -6.051,2.507 -12.145,8.644 -18.594,15.136 -9.848,9.914 -21.004,21.145 -35.301,21.145 -14.3,0 -25.457,-11.231 -35.3,-21.145 -6.45,-6.492 -12.543,-12.629 -18.594,-15.136 -6.488,-2.696 -15.856,-2.715 -24.9182,-2.731 -14.3519,-0.039 -29.1878,-0.07 -38.8519,-9.726 -9.6559,-9.661 -9.6867,-24.5 -9.7258,-38.848 -0.016,-9.063 -0.0351,-18.434 -2.7312,-24.918 -2.511,-6.051 -8.6438,-12.145 -15.136,-18.594 C 11.2301,269.139 0,257.983 0,243.682 c 0,-14.308 11.2301,-25.464 21.1449,-35.308 6.4922,-6.449 12.6281,-12.535 15.136,-18.586 2.6961,-6.488 2.7152,-15.856 2.7312,-24.918 0.0391,-14.356 0.0699,-29.195 9.7258,-38.852 9.657,-9.66 24.5,-9.691 38.8562,-9.722 9.0618,-0.024 18.4259,-0.043 24.9139,-2.731 6.047,-2.515 12.144,-8.644 18.594,-15.14 9.843,-9.9109 21,-21.141 35.296,-21.141 14.301,0 25.457,11.2301 35.301,21.141 6.449,6.496 12.543,12.625 18.594,15.14 6.48,2.688 15.852,2.707 24.906,2.731 14.356,0.031 29.199,0.062 38.863,9.722 9.657,9.657 9.688,24.496 9.727,38.852 0.016,9.062 0.035,18.43 2.731,24.918 2.503,6.051 8.644,12.137 15.136,18.586 9.914,9.844 21.145,21 21.145,35.308 0,14.297 -11.239,25.453 -21.149,35.297 z"
         style="fill:#828282;fill-opacity:1;fill-rule:nonzero;stroke:none"
         id="path22"
         inkscape:connector-curvature="0" /><path
         d="M 36.2809,297.573 C 33.7699,291.526 27.6371,285.428 21.1449,278.979 11.2301,269.135 0,257.979 0,243.682 c 0,-14.308 11.2301,-25.464 21.1449,-35.308 6.4922,-6.449 12.6281,-12.535 15.136,-18.586 2.6961,-6.488 2.7152,-15.856 2.7312,-24.918 0.0391,-14.356 0.0699,-29.195 9.7258,-38.852 9.657,-9.66 24.5,-9.691 38.8562,-9.722 9.0618,-0.028 18.4259,-0.047 24.9139,-2.735 6.047,-2.511 12.144,-8.64 18.594,-15.136 9.843,-9.9109 21,-21.1449 35.296,-21.1449 14.301,0 25.457,11.234 35.301,21.1449 6.449,6.496 12.543,12.625 18.594,15.136 6.48,2.688 15.852,2.707 24.906,2.735 14.356,0.031 29.199,0.062 38.863,9.722 L 48.7379,361.343 c -9.6559,-9.661 -9.6867,-24.5 -9.7258,-38.848 -0.016,-9.063 -0.0351,-18.434 -2.7312,-24.922 z"
         style="fill:#003e17;fill-opacity:1;fill-rule:nonzero;stroke:none"
         id="path24"
         inkscape:connector-curvature="0" /><path
         d="m 275.723,243.678 c 0,-60.375 -48.946,-109.32 -109.321,-109.32 -60.379,0 -109.3239,48.945 -109.3239,109.32 0,60.375 48.9449,109.321 109.3239,109.321 60.375,0 109.321,-48.946 109.321,-109.321 z"
         style="fill:#ffffff;fill-opacity:1;fill-rule:nonzero;stroke:none"
         id="path26"
         inkscape:connector-curvature="0" /><path
         d="M 230.004,180.596 103.316,307.284 C 86.9488,291.05 76.8012,268.553 76.8012,243.678 c 0,-49.484 40.1128,-89.601 89.6008,-89.601 24.871,0 47.368,10.148 63.602,26.519 z"
         style="fill:#ff9600;fill-opacity:1;fill-rule:nonzero;stroke:none"
         id="path28"
         inkscape:connector-curvature="0" /><path
         d="m 89.3711,321.229 c -19.9371,-19.804 -32.293,-47.23 -32.293,-77.551 0,-60.375 48.9449,-109.32 109.3239,-109.32 30.321,0 57.746,12.356 77.547,32.293 L 89.3711,321.229 z"
         style="fill:#ffffff;fill-opacity:1;fill-rule:nonzero;stroke:none"
         id="path30"
         inkscape:connector-curvature="0" /><path
         d="m 256,243.678 c 0,-49.484 -40.113,-89.601 -89.598,-89.601 -49.484,0 -89.6008,40.117 -89.6008,89.601 0,49.485 40.1168,89.602 89.6008,89.602 49.485,0 89.598,-40.117 89.598,-89.602 z"
         style="fill:#a0a0a0;fill-opacity:1;fill-rule:nonzero;stroke:none"
         id="path32"
         inkscape:connector-curvature="0" /><path
         d="M 103.316,307.284 C 86.9488,291.05 76.8012,268.553 76.8012,243.678 c 0,-49.484 40.1128,-89.601 89.6008,-89.601 24.875,0 47.368,10.148 63.602,26.519 L 103.316,307.284 z"
         style="fill:#cccccc;fill-opacity:1;fill-rule:nonzero;stroke:none"
         id="path34"
         inkscape:connector-curvature="0" /><path
         d="m 224.262,275.94 c 0,-14.14 -11.461,-25.601 -25.602,-25.601 -14.137,0 -25.598,11.461 -25.598,25.601 0,14.137 11.461,25.598 25.598,25.598 14.141,0 25.602,-11.461 25.602,-25.598 z"
         style="fill:#ffffff;fill-opacity:1;fill-rule:nonzero;stroke:none"
         id="path36"
         inkscape:connector-curvature="0" /></g><text
       xml:space="preserve"
       style="font-size:32px;font-style:normal;font-weight:normal;line-height:125%;letter-spacing:0px;word-spacing:0px;fill:#002108;fill-opacity:1;stroke:none;font-family:Sans"
       x="60.009766"
       y="-4.1474576"
       id="text3088"
       sodipodi:linespacing="125%"
       transform="scale(1,-1)"><tspan
         sodipodi:role="line"
         id="tspan3090"
         x="60.009766"
         y="-4.1474576"
         style="font-size:56px;font-weight:bold;-inkscape-font-specification:Sans Bold;fill:#002108;fill-opacity:1">NOTAS</tspan></text>
</g></svg>