<?xml version="1.0" encoding="UTF-8" standalone="no"?>
<!-- Created with Inkscape (http://www.inkscape.org/) -->

<svg
   xmlns:dc="http://purl.org/dc/elements/1.1/"
   xmlns:cc="http://creativecommons.org/ns#"
   xmlns:rdf="http://www.w3.org/1999/02/22-rdf-syntax-ns#"
   xmlns:svg="http://www.w3.org/2000/svg"
   xmlns="http://www.w3.org/2000/svg"
   xmlns:sodipodi="http://sodipodi.sourceforge.net/DTD/sodipodi-0.dtd"
   xmlns:inkscape="http://www.inkscape.org/namespaces/inkscape"
   id="svg2"
   version="1.1"
   inkscape:version="0.48.4 r9939"
   width="502.5"
   height="396.25"
   xml:space="preserve"
   sodipodi:docname="mortarboard.png"><metadata
     id="metadata8"><rdf:RDF><cc:Work
         rdf:about=""><dc:format>image/svg+xml</dc:format><dc:type
           rdf:resource="http://purl.org/dc/dcmitype/StillImage" /><dc:title></dc:title></cc:Work></rdf:RDF></metadata><defs
     id="defs6" /><sodipodi:namedview
     pagecolor="#ffffff"
     bordercolor="#666666"
     borderopacity="1"
     objecttolerance="10"
     gridtolerance="10"
     guidetolerance="10"
     inkscape:pageopacity="0"
     inkscape:pageshadow="2"
     inkscape:window-width="1301"
     inkscape:window-height="744"
     id="namedview4"
     showgrid="false"
     inkscape:snap-to-guides="true"
     inkscape:snap-object-midpoints="false"
     inkscape:snap-page="true"
     inkscape:zoom="0.5955836"
     inkscape:cx="-179.62082"
     inkscape:cy="198.125"
     inkscape:window-x="65"
     inkscape:window-y="24"
     inkscape:window-maximized="1"
     inkscape:current-layer="g10" /><g
     id="g10"
     inkscape:groupmode="layer"
     inkscape:label="ink_ext_XXXXXX"
     transform="matrix(1.25,0,0,-1.25,0,396.25)"><g
       id="g3792"
       transform="matrix(0.85956923,0,0,0.77434228,71.062486,-23.347146)"><path
         d="m 266.36285,289.31695 -230.397898,0 c -3.5391,0 -6.402,-2.867 -6.402,-6.403 l 0,-45.808 c 0,-38.9101 53.4139,-69.391 121.600898,-69.391 68.188,0 121.598,30.4848 121.598,69.391 l 0,45.808 c 0,3.536 -2.859,6.403 -6.399,6.403 z"
         style="fill:#074a25;fill-opacity:1;fill-rule:nonzero;stroke:none"
         id="path14"
         inkscape:connector-curvature="0" /><path
         d="m 151.36285,289.31695 -115.397898,0 c -3.5391,0 -6.402,-2.867 -6.402,-6.403 l 0,-45.808 c 0,-38.9101 53.4139,-69.391 121.600898,-69.391 0.067,0 0.133,0.008 0.199,0.008 l 0,121.5941 z"
         style="fill:#003e17;fill-opacity:1;fill-rule:nonzero;stroke:none"
         id="path16"
         inkscape:connector-curvature="0" /><path
         d="m 336.51985,357.64095 -162.696,69.73 c -14.398,6.172 -30.937,6.168 -45.347,-0.015 l -162.656098,-69.707 c -9.57498,-4.106 -15.5199,-13.121 -15.5199,-23.535 0,-10.411 5.94492,-19.418 15.5121,-23.52 l 162.686898,-69.73 c 7.196,-3.082 14.918,-4.622 22.649,-4.622 7.746,0 15.488,1.543 22.703,4.637 l 162.656,69.711 c 9.574,4.098 15.523,13.117 15.523,23.531 0,10.407 -5.941,19.418 -15.511,23.52 z"
         style="fill:#002108;fill-opacity:1;fill-rule:nonzero;stroke:none"
         id="path18"
         inkscape:connector-curvature="0" /><path
         d="m -8.836248,199.71495 c -3.5391,0 -6.402,2.8668 -6.402,6.402 l 0,97.016 c 0,6.242 4.4653,11.547 10.6129,12.613 l 129.094198,22.454 c 3.484,0.597 6.793,-1.731 7.402,-5.211 0.606,-3.481 -1.726,-6.797 -5.215,-7.403 l -129.092898,-22.453 0,-97.016 c 0,-3.5352 -2.8641,-6.402 -6.3992,-6.402 z"
         style="fill:#003e17;fill-opacity:1;fill-rule:nonzero;stroke:none"
         id="path20"
         inkscape:connector-curvature="0" /><path
         d="m 3.964952,199.71495 c 0,-7.066 -5.7301,-12.8011 -12.8012,-12.8011 -7.0699,0 -12.8008,5.7351 -12.8008,12.8011 0,7.07 5.7309,12.8008 12.8008,12.8008 7.0711,0 12.8012,-5.7308 12.8012,-12.8008 z"
         style="fill:#cd6900;fill-opacity:1;fill-rule:nonzero;stroke:none"
         id="path22"
         inkscape:connector-curvature="0" /><path
         d="m 125.56285,340.51595 0,-12.801 c 0,-7.066 11.461,-12.801 25.601,-12.801 14.137,0 25.598,5.735 25.598,12.801 l 0,12.801 -51.199,0 z"
         style="fill:#cd6900;fill-opacity:1;fill-rule:nonzero;stroke:none"
         id="path24"
         inkscape:connector-curvature="0" /><path
         d="m 176.76185,340.51595 c 0,-7.07 -11.461,-12.801 -25.598,-12.801 -14.14,0 -25.601,5.731 -25.601,12.801 0,7.07 11.461,12.801 25.601,12.801 14.137,0 25.598,-5.731 25.598,-12.801 z"
         style="fill:#e69300;fill-opacity:1;fill-rule:nonzero;stroke:none"
         id="path26"
         inkscape:connector-curvature="0" /><path
         d="m -21.988248,174.16815 -4.6058,-50.67229 c -0.3391,-3.75 2.6097,-6.98008 6.3719,-6.98008 l 24.3859,0 c 3.7621,0 6.7109,3.23008 6.3711,6.98008 l -4.6051,50.67229 c -0.6559,7.2226 -6.71089997,12.75 -13.957,12.75 l -0.004,0 c -7.2461,-0.004 -13.3008,-5.5274 -13.9571,-12.75 z"
         style="fill:#012008;fill-opacity:1;fill-rule:nonzero;stroke:none"
         id="path28"
         inkscape:connector-curvature="0" /></g><text
       xml:space="preserve"
       style="font-size:72px;font-style:normal;font-variant:normal;font-weight:bold;font-stretch:normal;text-align:start;line-height:125%;letter-spacing:0px;word-spacing:0px;writing-mode:lr-tb;text-anchor:start;fill:#002108;fill-opacity:1;stroke:none;font-family:Sans;-inkscape-font-specification:Sans Bold"
       x="32.337891"
       y="-11.419531"
       id="text2991"
       sodipodi:linespacing="125%"
       transform="scale(1,-1)"><tspan
         sodipodi:role="line"
         id="tspan2993"
         x="32.337891"
         y="-11.419531">TURMAS</tspan></text>
</g></svg>