<?xml version="1.0" encoding="UTF-8" standalone="no"?>
<!-- Created with Inkscape (http://www.inkscape.org/) -->

<svg
   xmlns:dc="http://purl.org/dc/elements/1.1/"
   xmlns:cc="http://creativecommons.org/ns#"
   xmlns:rdf="http://www.w3.org/1999/02/22-rdf-syntax-ns#"
   xmlns:svg="http://www.w3.org/2000/svg"
   xmlns="http://www.w3.org/2000/svg"
   xmlns:sodipodi="http://sodipodi.sourceforge.net/DTD/sodipodi-0.dtd"
   xmlns:inkscape="http://www.inkscape.org/namespaces/inkscape"
   id="svg2"
   version="1.1"
   inkscape:version="0.48.4 r9939"
   width="512.5"
   height="466.25"
   xml:space="preserve"
   sodipodi:docname="suitcase.png"><metadata
     id="metadata8"><rdf:RDF><cc:Work
         rdf:about=""><dc:format>image/svg+xml</dc:format><dc:type
           rdf:resource="http://purl.org/dc/dcmitype/StillImage" /><dc:title></dc:title></cc:Work></rdf:RDF></metadata><defs
     id="defs6" /><sodipodi:namedview
     pagecolor="#ffffff"
     bordercolor="#666666"
     borderopacity="1"
     objecttolerance="10"
     gridtolerance="10"
     guidetolerance="10"
     inkscape:pageopacity="0"
     inkscape:pageshadow="2"
     inkscape:window-width="1301"
     inkscape:window-height="744"
     id="namedview4"
     showgrid="false"
     inkscape:zoom="0.50616622"
     inkscape:cx="-18.363347"
     inkscape:cy="233.125"
     inkscape:window-x="65"
     inkscape:window-y="24"
     inkscape:window-maximized="1"
     inkscape:current-layer="g10" /><g
     id="g10"
     inkscape:groupmode="layer"
     inkscape:label="ink_ext_XXXXXX"
     transform="matrix(1.25,0,0,-1.25,0,466.25)"><g
       id="g2990"
       transform="matrix(0.80320913,0,0,0.74452908,40.501967,91.866788)"><path
         d="m 147.199,312.47 0,15.644 c 0,10.191 8.293,18.484 18.489,18.484 l 78.222,0 c 10.195,0 18.488,-8.293 18.488,-18.484 l 0,-15.644 25.602,0 0,15.644 c 0,24.313 -19.777,44.086 -44.09,44.086 l -78.222,0 c -24.309,0 -44.086,-19.773 -44.086,-44.086 l 0,-15.644 25.597,0 z"
         style="fill:#003e17;fill-opacity:1;fill-rule:nonzero;stroke:none"
         id="path14"
         inkscape:connector-curvature="0" /><path
         d="m 377.602,314.598 -345.602,0 c -17.6449,0 -32,-14.355 -32,-32 L 0,33.0012 C 0,15.3559 14.3551,1.00117 32,1.00117 l 345.602,0 c 17.64,0 32,14.35473 32,32.00003 l 0,249.5968 c 0,17.645 -14.36,32 -32,32 z"
         style="fill:#55744c;fill-opacity:1;fill-rule:nonzero;stroke:none"
         id="path16"
         inkscape:connector-curvature="0" /><path
         d="m 390.398,122.598 -371.1992,0 C 8.61289,122.598 0,131.212 0,141.802 L 0,33.0012 C 0,15.3559 14.3551,1.00117 32,1.00117 l 345.602,0 c 17.64,0 32,14.35473 32,32.00003 l 0,108.8008 c 0,-10.59 -8.614,-19.204 -19.204,-19.204 z"
         style="fill:#003e17;fill-opacity:1;fill-rule:nonzero;stroke:none"
         id="path18"
         inkscape:connector-curvature="0" /><path
         d="m 83.1988,71.3988 c -7.0699,0 -12.8008,5.7313 -12.8008,12.8012 l 0,64 c 0,7.07 5.7309,12.801 12.8008,12.801 C 90.2699,161.001 96,155.27 96,148.2 l 0,-64 C 96,77.1301 90.2699,71.3988 83.1988,71.3988 z"
         style="fill:#1a1a1a;fill-opacity:1;fill-rule:nonzero;stroke:none"
         id="path20"
         inkscape:connector-curvature="0" /><path
         d="m 83.1988,103.399 c -7.0699,0 -12.8008,5.731 -12.8008,12.801 l 0,32 c 0,7.07 5.7309,12.801 12.8008,12.801 C 90.2699,161.001 96,155.27 96,148.2 l 0,-32 c 0,-7.07 -5.7301,-12.801 -12.8012,-12.801 z"
         style="fill:#e6e6e6;fill-opacity:1;fill-rule:nonzero;stroke:none"
         id="path22"
         inkscape:connector-curvature="0" /><path
         d="m 320,71.3988 c -7.07,0 -12.801,5.7313 -12.801,12.8012 l 0,64 c 0,7.07 5.731,12.801 12.801,12.801 7.07,0 12.801,-5.731 12.801,-12.801 l 0,-64 c 0,-7.0699 -5.731,-12.8012 -12.801,-12.8012 z"
         style="fill:#1a1a1a;fill-opacity:1;fill-rule:nonzero;stroke:none"
         id="path24"
         inkscape:connector-curvature="0" /><path
         d="m 320,103.399 c -7.07,0 -12.801,5.731 -12.801,12.801 l 0,32 c 0,7.07 5.731,12.801 12.801,12.801 7.07,0 12.801,-5.731 12.801,-12.801 l 0,-32 c 0,-7.07 -5.731,-12.801 -12.801,-12.801 z"
         style="fill:#e6e6e6;fill-opacity:1;fill-rule:nonzero;stroke:none"
         id="path26"
         inkscape:connector-curvature="0" /><path
         d="m 243.199,141.802 -76.801,0 c -3.531,0 -6.398,2.863 -6.398,6.398 0,3.535 2.867,6.398 6.398,6.398 l 76.801,0 c 3.535,0 6.403,-2.863 6.403,-6.398 0,-3.535 -2.868,-6.398 -6.403,-6.398 z"
         style="fill:#1a1a1a;fill-opacity:1;fill-rule:nonzero;stroke:none"
         id="path28"
         inkscape:connector-curvature="0" /></g><text
       xml:space="preserve"
       style="font-size:32px;font-style:normal;font-weight:normal;line-height:125%;letter-spacing:0px;word-spacing:0px;fill:#003e17;fill-opacity:1;stroke:none;font-family:Sans"
       x="204.37851"
       y="-11.374219"
       id="text3000"
       sodipodi:linespacing="125%"
       transform="scale(1,-1)"><tspan
         sodipodi:role="line"
         id="tspan3002"
         x="204.37851"
         y="-11.374219"
         style="font-size:68.80000305px;font-weight:bold;text-align:center;text-anchor:middle;fill:#003e17;fill-opacity:1;-inkscape-font-specification:Sans Bold">USUÁRIO</tspan></text>
</g></svg>