<?xml version="1.0" encoding="UTF-8" standalone="no"?>
<!-- Created with Inkscape (http://www.inkscape.org/) -->

<svg
   xmlns:dc="http://purl.org/dc/elements/1.1/"
   xmlns:cc="http://creativecommons.org/ns#"
   xmlns:rdf="http://www.w3.org/1999/02/22-rdf-syntax-ns#"
   xmlns:svg="http://www.w3.org/2000/svg"
   xmlns="http://www.w3.org/2000/svg"
   xmlns:sodipodi="http://sodipodi.sourceforge.net/DTD/sodipodi-0.dtd"
   xmlns:inkscape="http://www.inkscape.org/namespaces/inkscape"
   id="svg2"
   version="1.1"
   inkscape:version="0.48.4 r9939"
   width="512.5"
   height="426.25"
   xml:space="preserve"
   sodipodi:docname="team.png"><metadata
     id="metadata8"><rdf:RDF><cc:Work
         rdf:about=""><dc:format>image/svg+xml</dc:format><dc:type
           rdf:resource="http://purl.org/dc/dcmitype/StillImage" /><dc:title></dc:title></cc:Work></rdf:RDF></metadata><defs
     id="defs6" /><sodipodi:namedview
     pagecolor="#ffffff"
     bordercolor="#666666"
     borderopacity="1"
     objecttolerance="10"
     gridtolerance="10"
     guidetolerance="10"
     inkscape:pageopacity="0"
     inkscape:pageshadow="2"
     inkscape:window-width="1301"
     inkscape:window-height="744"
     id="namedview4"
     showgrid="false"
     inkscape:zoom="0.55366569"
     inkscape:cx="5.195975"
     inkscape:cy="213.125"
     inkscape:window-x="65"
     inkscape:window-y="24"
     inkscape:window-maximized="1"
     inkscape:current-layer="g10" /><g
     id="g10"
     inkscape:groupmode="layer"
     inkscape:label="ink_ext_XXXXXX"
     transform="matrix(1.25,0,0,-1.25,0,426.25)"><g
       id="g2997"
       transform="matrix(0.80950918,0,0,0.76567456,39.21171,75.369644)"><path
         d="m 101.426,130.406 c -14.7619,0 -28.1561,6.336 -38.035,16.574 -0.0082,-6.137 -0.2308,-14.992 -1.8601,-21.453 1.0711,-0.653 1.8992,-1.723 2.0589,-3.055 2.109,-17.16 18.375,-30.1009 37.8362,-30.1009 19.461,0 35.722,12.9409 37.836,30.1009 0.164,1.332 0.972,2.402 2.058,3.051 -1.629,6.465 -1.851,15.32 -1.859,21.457 -9.883,-10.238 -23.273,-16.574 -38.035,-16.574 z"
         style="fill:#ffb980;fill-opacity:1;fill-rule:nonzero;stroke:none"
         id="path14"
         inkscape:connector-curvature="0" /><path
         d="m 138.637,146.199 c -9.801,-9.762 -22.844,-15.793 -37.211,-15.793 -14.7619,0 -28.1561,6.336 -38.035,16.57 -0.0082,-6.133 -0.2308,-14.992 -1.8601,-21.453 1.0711,-0.649 1.8992,-1.723 2.0589,-3.055 0.9332,-7.582 4.6372,-14.336 10.1524,-19.519 25.4457,3.582 54.3278,28.707 64.8948,43.25 z"
         style="fill:#f8ab6b;fill-opacity:1;fill-rule:nonzero;stroke:none"
         id="path16"
         inkscape:connector-curvature="0" /><path
         d="m 178.559,120.96 c -0.168,0.047 -0.336,0.086 -0.512,0.11 l -33.735,5.062 c -0.207,0.032 -0.648,0.047 -0.859,0.047 -2.133,0 -3.93,-1.59 -4.191,-3.711 -2.114,-17.156 -18.379,-30.0969 -37.836,-30.0969 -19.4651,0 -35.7272,12.9369 -37.8362,30.0969 -0.266,2.184 -2.2308,3.824 -4.3007,3.711 -0.2461,0.012 -0.4922,-0.008 -0.75,-0.047 L 24.8051,121.07 C 24.6289,121.046 24.4609,121.007 24.293,120.96 8.34414,116.496 0,100.804 0,87.6129 L 0,71.2422 c 0,-6.9731 6.20703,-12.641 13.8359,-12.641 l 175.1761,0 c 7.633,0 13.84,5.6679 13.84,12.641 l 0,16.3707 c 0,13.1911 -8.348,28.8831 -24.293,33.3471 z"
         style="fill:#002008;fill-opacity:1;fill-rule:nonzero;stroke:none"
         id="path18"
         inkscape:connector-curvature="0" /><path
         d="m 139.461,236.058 -71.8438,0 c -11.6524,0 -21.1293,-9.48 -21.1293,-21.133 l 0,-25.355 c 0,-32.621 24.6449,-59.164 54.9381,-59.164 30.293,0 54.937,26.543 54.937,59.164 l 0,29.582 c 0,9.32 -7.582,16.906 -16.902,16.906 z"
         style="fill:#fdc88e;fill-opacity:1;fill-rule:nonzero;stroke:none"
         id="path20"
         inkscape:connector-curvature="0" /><path
         d="m 131.008,282.542 -54.9381,0 c -7.9488,0 -14.632,-5.511 -16.4289,-12.914 -14.5512,-1.847 -25.832,-14.304 -25.832,-29.343 l 0,-21.133 c 0,-10.891 4.6211,-21.051 12.6789,-28.27 l 0,24.047 c 0,11.649 9.4769,21.129 21.1293,21.129 l 71.8438,0 c 9.32,0 16.902,-7.582 16.902,-16.902 l 0,-28.27 c 8.059,7.219 12.68,17.379 12.68,28.27 l 0,25.355 c 0,20.969 -17.063,38.031 -38.035,38.031 z"
         style="fill:#5c546a;fill-opacity:1;fill-rule:nonzero;stroke:none"
         id="path22"
         inkscape:connector-curvature="0" /><path
         d="m 308.176,130.406 c -14.762,0 -28.156,6.336 -38.039,16.574 -0.004,-6.137 -0.231,-14.992 -1.856,-21.453 1.067,-0.653 1.895,-1.723 2.059,-3.055 2.105,-17.16 18.371,-30.1009 37.836,-30.1009 19.457,0 35.722,12.9409 37.836,30.1009 0.164,1.332 0.972,2.402 2.054,3.051 -1.625,6.465 -1.847,15.32 -1.855,21.457 -9.883,-10.238 -23.273,-16.574 -38.035,-16.574 z"
         style="fill:#ffb980;fill-opacity:1;fill-rule:nonzero;stroke:none"
         id="path24"
         inkscape:connector-curvature="0" /><path
         d="m 345.387,146.199 c -9.801,-9.762 -22.844,-15.793 -37.211,-15.793 -14.762,0 -28.156,6.336 -38.039,16.57 -0.004,-6.133 -0.231,-14.992 -1.856,-21.453 1.067,-0.649 1.895,-1.723 2.059,-3.055 0.93,-7.582 4.637,-14.336 10.152,-19.519 25.446,3.582 54.324,28.707 64.895,43.25 z"
         style="fill:#f8ab6b;fill-opacity:1;fill-rule:nonzero;stroke:none"
         id="path26"
         inkscape:connector-curvature="0" /><path
         d="m 385.309,120.96 c -0.168,0.047 -0.34,0.086 -0.512,0.11 l -33.735,5.062 c -0.207,0.032 -0.648,0.047 -0.859,0.047 -2.133,0 -3.933,-1.59 -4.191,-3.711 -2.114,-17.156 -18.379,-30.0969 -37.836,-30.0969 -19.465,0 -35.731,12.9369 -37.836,30.0969 -0.266,2.184 -2.231,3.824 -4.301,3.711 -0.25,0.012 -0.492,-0.008 -0.75,-0.047 l -33.734,-5.062 c -0.176,-0.024 -0.344,-0.063 -0.516,-0.11 -15.945,-4.464 -24.289,-20.156 -24.289,-33.3471 l 0,-16.3707 c 0,-6.9731 6.207,-12.641 13.836,-12.641 l 175.176,0 c 7.633,0 13.84,5.6679 13.84,12.641 l 0,16.3707 c 0,13.1911 -8.348,28.8831 -24.293,33.3471 z"
         style="fill:#58724f;fill-opacity:1;fill-rule:nonzero;stroke:none"
         id="path28"
         inkscape:connector-curvature="0" /><path
         d="m 346.207,236.058 -71.84,0 c -11.652,0 -21.133,-9.48 -21.133,-21.133 l 0,-25.355 c 0,-32.621 24.649,-59.164 54.938,-59.164 30.293,0 54.941,26.543 54.941,59.164 l 0,29.582 c 0,9.32 -7.582,16.906 -16.906,16.906 z"
         style="fill:#fdc88e;fill-opacity:1;fill-rule:nonzero;stroke:none"
         id="path30"
         inkscape:connector-curvature="0" /><path
         d="m 337.758,282.542 -54.938,0 c -7.949,0 -14.632,-5.511 -16.429,-12.914 -14.551,-1.847 -25.832,-14.304 -25.832,-29.343 l 0,-21.133 c 0,-10.891 4.621,-21.051 12.675,-28.27 l 0,24.047 c 0,11.649 9.481,21.129 21.133,21.129 l 71.844,0 c 9.32,0 16.902,-7.582 16.902,-16.902 l 0,-28.27 c 8.059,7.219 12.68,17.379 12.68,28.27 l 0,25.355 c 0,20.969 -17.063,38.031 -38.035,38.031 z"
         style="fill:#7e5c62;fill-opacity:1;fill-rule:nonzero;stroke:none"
         id="path32"
         inkscape:connector-curvature="0" /><path
         d="m 204.801,109.746 c -22.356,0 -42.637,9.589 -57.602,25.097 -0.011,-9.293 -0.351,-22.703 -2.812,-32.492 1.613,-0.984 2.867,-2.6088 3.113,-4.6248 3.195,-25.9883 27.824,-45.5821 57.301,-45.5821 29.469,0 54.097,19.5981 57.301,45.5821 0.246,2.0199 1.472,3.6408 3.113,4.6248 -2.461,9.785 -2.801,23.199 -2.813,32.492 -14.964,-15.508 -35.246,-25.097 -57.601,-25.097 z"
         style="fill:#fdc88e;fill-opacity:1;fill-rule:nonzero;stroke:none"
         id="path34"
         inkscape:connector-curvature="0" /><path
         d="m 261.152,133.66 c -14.84,-14.782 -34.593,-23.914 -56.351,-23.914 -22.356,0 -42.637,9.589 -57.602,25.097 -0.011,-9.293 -0.351,-22.703 -2.812,-32.492 1.613,-0.984 2.867,-2.6088 3.113,-4.6248 1.41,-11.4883 7.023,-21.7153 15.379,-29.5621 38.535,5.425 82.269,43.4759 98.273,65.4959 z"
         style="fill:#ffb980;fill-opacity:1;fill-rule:nonzero;stroke:none"
         id="path36"
         inkscape:connector-curvature="0" /><path
         d="m 321.613,95.441 c -0.258,0.0699 -0.515,0.1289 -0.777,0.1641 l -51.086,7.6679 c -0.312,0.047 -0.98,0.07 -1.301,0.07 -3.23,0 -5.957,-2.41 -6.351,-5.6168 -3.2,-25.984 -27.828,-45.5821 -57.297,-45.5821 -29.477,0 -54.11,19.5938 -57.301,45.5821 -0.402,3.3048 -3.375,5.7848 -6.512,5.6168 -0.379,0.02 -0.746,-0.011 -1.14,-0.07 L 88.7621,95.609 C 88.5,95.5699 88.2422,95.5148 87.9879,95.441 63.8359,88.6789 51.1988,64.9172 51.1988,44.9371 l 0,-24.793 c 0,-10.55504 9.4032,-19.145272 20.9571,-19.145272 l 265.2851,0 c 11.559,0 20.957,8.586332 20.957,19.145272 l 0,24.793 c 0,19.9801 -12.636,43.7418 -36.785,50.5039 z"
         style="fill:#013e15;fill-opacity:1;fill-rule:nonzero;stroke:none"
         id="path38"
         inkscape:connector-curvature="0" /><path
         d="m 262.398,269.746 -108.796,0 c -17.645,0 -32,-14.36 -32,-32 l 0,-38.403 c 0,-49.406 37.324,-89.597 83.199,-89.597 45.875,0 83.199,40.191 83.199,89.597 l 0,44.801 c 0,14.113 -11.48,25.602 -25.602,25.602 z"
         style="fill:#ffe1b2;fill-opacity:1;fill-rule:nonzero;stroke:none"
         id="path40"
         inkscape:connector-curvature="0" /><path
         d="m 249.602,340.144 -83.204,0 c -12.035,0 -22.156,-8.348 -24.878,-19.559 -22.032,-2.8 -39.122,-21.664 -39.122,-44.441 l 0,-32 c 0,-16.492 7.004,-31.879 19.204,-42.816 l 0,36.418 c 0,17.64 14.355,32 32,32 l 108.796,0 c 14.122,0 25.602,-11.485 25.602,-25.602 l 0,-42.809 c 12.199,10.934 19.199,26.321 19.199,42.809 l 0,38.398 c 0,31.762 -25.836,57.602 -57.597,57.602 z"
         style="fill:#7e5449;fill-opacity:1;fill-rule:nonzero;stroke:none"
         id="path42"
         inkscape:connector-curvature="0" /></g><text
       xml:space="preserve"
       style="font-size:32px;font-style:normal;font-weight:normal;line-height:125%;letter-spacing:0px;word-spacing:0px;fill:#002008;fill-opacity:1;stroke:none;font-family:Sans"
       x="49.276169"
       y="-11.374219"
       id="text3014"
       sodipodi:linespacing="125%"
       transform="scale(1,-1)"><tspan
         sodipodi:role="line"
         id="tspan3016"
         x="49.276169"
         y="-11.374219"
         style="font-size:68.80000305px;font-weight:bold;fill:#002008;fill-opacity:1;-inkscape-font-specification:Sans Bold">ALUNOS</tspan></text>
</g></svg>